# xmcd CD database file
#
# Track frame offsets:
#	150
#	15890
#	36330
#	53909
#	73735
#	90552
#	108200
#	124666
#	145237
#	160763
#	181761
#
# Disc length: 2708 seconds
#
# Revision: 0
# Processed by: cddbd v1.5.1PL2 Copyright (c) Steve Scherf et al.
# Submitted via: CDex 1.51
#
DISCID=860a920b
DTITLE=Kate Earl - Morning Becomes Eclectic, September 27, 2005. KCRW
DYEAR=2005
DGENRE=Blues
TTITLE0=Kate Earl - Silence
TTITLE1=Kate Earl - Cry Sometimes
TTITLE2=Kate Earl - Anything
TTITLE3=Kate Earl - Officer
TTITLE4=Kate Earl - Come This Far
TTITLE5=Kate Earl - Free
TTITLE6=Kate Earl - Someone To Love
TTITLE7=Kate Earl - When You're Older
TTITLE8=Kate Earl - Someone To Love
TTITLE9=Kate Earl - When You're Older
TTITLE10=Kate Earl - Officer
EXTD=YEAR: 2005
EXTT0=
EXTT1=
EXTT2=
EXTT3=
EXTT4=
EXTT5=
EXTT6=
EXTT7=
EXTT8=
EXTT9=
EXTT10=
PLAYORDER=
